<svg xmlns="http://www.w3.org/2000/svg" xmlns:xlink="http://www.w3.org/1999/xlink" version="1.1" x="0px" y="0px" viewBox="0 0 100 125" enable-background="new 0 0 100 100" xml:space="preserve"><g><path d="M76.781,38.48L66.088,10.37c-0.369-0.971-1.299-1.611-2.337-1.611h-27.5c-1.038,0-1.968,0.641-2.337,1.61L23.22,38.479   c-0.059,0.155-0.101,0.312-0.128,0.473c-0.053,0.308-0.048,0.629,0.021,0.948l10.694,49.37c0.249,1.149,1.267,1.971,2.443,1.971   h27.5c1.177,0,2.194-0.821,2.443-1.971L76.888,39.9c0.031-0.146,0.05-0.291,0.055-0.436C76.955,39.134,76.902,38.799,76.781,38.48z    M59.251,39.05h-6.75v12.668c0,1.381-1.119,2.5-2.5,2.5s-2.5-1.119-2.5-2.5V39.05h-6.75c-1.381,0-2.5-1.119-2.5-2.5   s1.119-2.5,2.5-2.5h6.75v-6.998c0-1.381,1.119-2.5,2.5-2.5s2.5,1.119,2.5,2.5v6.998h6.75c1.381,0,2.5,1.119,2.5,2.5   S60.632,39.05,59.251,39.05z"/></g></svg>